<?xml version="1.0" encoding="UTF-8"?>
<svg width="100pt" height="100pt" version="1.1" viewBox="0 0 100 100" xmlns="http://www.w3.org/2000/svg">
 <path d="m78.473 3.125h-28.473c-1.7266 0-3.125 1.3984-3.125 3.125s1.3984 3.125 3.125 3.125h28.473c6.6992 0 12.152 5.4531 12.152 12.152v56.945c0 6.6992-5.4531 12.152-12.152 12.152h-56.945c-6.6992 0-12.152-5.4531-12.152-12.152v-28.473c0-1.7266-1.3984-3.125-3.125-3.125s-3.125 1.3984-3.125 3.125v28.473c0 10.148 8.2539 18.402 18.402 18.402h56.945c10.148 0 18.402-8.2539 18.402-18.402v-56.945c0-10.148-8.2539-18.402-18.402-18.402z" fill="#12b0fb"/>
 <path d="m56.762 81.645c0.58594 0.58594 1.3828 0.91406 2.2109 0.91406h20.461c1.7266 0 3.125-1.3984 3.125-3.125v-20.461c0-0.82812-0.32812-1.625-0.91406-2.2109l-48.484-48.484c-6.8633-6.8594-18.023-6.8594-24.883 0s-6.8594 18.02 0 24.883zm19.547-5.3359h-16.043l-35.75-35.75 16.043-16.043 35.75 35.75zm-63.613-63.613c4.4219-4.4219 11.621-4.4219 16.043 0l7.3984 7.3984-16.043 16.043-7.3984-7.3984c-4.4219-4.4219-4.4219-11.621 0-16.043z" fill="#12b0fb"/>
</svg>
